<svg xmlns="http://www.w3.org/2000/svg" viewBox="0 0 512 512" style="height: 512px; width: 512px;"><g class="" transform="translate(0,0)" style=""><g><path d="M413.3 24.08C413.3 30.61 413.2 37.01 412.9 43.29C414.3 43.19 415.6 43.15 416.9 43.13C426.5 42.95 435.3 44.32 443.6 46.13C445.1 40.48 447.1 34.49 449.8 28.09C437 28.83 424.9 27.35 413.3 24.08Z" class="selected" fill="#8b572a" fill-opacity="1" stroke="#000000" stroke-opacity="1" stroke-width="8"></path><path d="M417.3 61.1C415.6 61.1 413.8 61.26 411.9 61.42C406.5 134.3 385.3 189.8 355.2 232.6C318.7 284.7 269.7 317.8 222.5 342.3C175.4 366.8 129.7 383 100.2 400.1C85.35 408.7 74.85 417.4 69.58 426.4C66.28 431.9 64.61 437.7 65.04 444.7L89.04 452.8C150 440.7 234.3 410 304.1 363.7C344.8 336.8 380.7 304.7 404.6 268.4C428.6 232.1 440.7 192.1 434.8 147.6L452.7 145.3C459.2 194.4 445.3 239.3 419.6 278.3C393.8 317.3 356.2 350.8 314 378.7C243.6 425.4 160.6 456.4 97.24 469.6L91.39 480.6C95.81 482.5 100.8 484 106.4 485.2C127.2 489.5 155.3 488.8 186.8 482.3C249.4 469.5 324.8 434.9 383.9 381.3C437.9 332.5 476.3 275.4 488.9 224.3C501.6 173 490.2 128.6 443.6 97.8L439.8 95.27L439.5 90.76C439.1 82.57 438.9 73.74 440.1 63.81C432.6 62.14 425.2 60.97 417.3 61.1Z" class="" fill="#f8e71c" fill-opacity="1" stroke="#000000" stroke-opacity="1" stroke-width="8"></path><path d="M392.2 80.13C378.2 134 353.9 174 324.1 203.8C285 242.9 237.1 264.7 191.9 279.4C146.8 294.2 104 302.4 75.53 313.1C61.32 318.5 50.98 324.5 45.49 331C42.28 334.7 40.31 338.5 39.77 343.4L59.5 352.6C108 350 173.6 337.9 234.3 315.3C273.3 292.9 311.3 263.9 340.5 222.2C365.9 186 385 140.2 392.2 80.13Z" class="" fill="#f8e71c" fill-opacity="1" stroke="#000000" stroke-opacity="1" stroke-width="8"></path><path d="M349.9 139.5C338.6 149.8 326.7 158.7 314.4 166.2C269.8 193.3 220.1 202.9 174.3 206.9C128.7 210.9 86.46 209.4 57.39 213.1C42.86 215.1 31.87 218.4 25.55 223C22.09 225.5 19.68 228.1 18.26 231.8L34.86 243.8C88.73 252.7 166.9 254.9 237.2 241.8C237.8 241.7 238.3 241.6 238.9 241.5C264.8 228.9 289.6 212.8 311.3 191C325.7 176.6 338.8 159.6 349.9 139.5Z" class="" fill="#f8e71c" fill-opacity="1" stroke="#000000" stroke-opacity="1" stroke-width="8"></path><path d="M36.49 262.3L31.61 266.2C34.25 268.2 37.24 270.2 40.63 272.1C52.9 279.1 69.61 285.2 89.18 289.6C112.3 282.6 139.5 276.4 167.9 268.1C120.1 270.8 73.67 268.1 36.49 262.3Z" class="" fill="#f8e71c" fill-opacity="1" stroke="#000000" stroke-opacity="1" stroke-width="8"></path><path d="M140.8 360.3C113.7 365.7 87.93 369 65.12 370.4L60.18 376.7C63.5 378.4 67.23 380 71.41 381.4C76.69 383.1 82.6 384.6 89.02 385.7C89.72 385.3 90.42 384.9 91.13 384.5C105.4 376.2 122.4 368.4 140.8 360.3Z" class="" fill="#f8e71c" fill-opacity="1" stroke="#000000" stroke-opacity="1" stroke-width="8"></path></g></g></svg>