<svg xmlns="http://www.w3.org/2000/svg" viewBox="0 0 512 512" style="height: 512px; width: 512px;"><defs><linearGradient x1="0" x2="1" y1="0" y2="1" id="delapouite-raspberry-gradient-1"><stop offset="0%" stop-color="#4d2365" stop-opacity="1"></stop><stop offset="100%" stop-color="#7d2395" stop-opacity="1"></stop></linearGradient><linearGradient x1="0" x2="1" y1="0" y2="1" id="delapouite-raspberry-gradient-2"><stop offset="0%" stop-color="#417505" stop-opacity="1"></stop><stop offset="100%" stop-color="#59a009" stop-opacity="1"></stop></linearGradient><linearGradient x1="0" x2="1" y1="0" y2="1" id="delapouite-raspberry-gradient-3"><stop offset="0%" stop-color="#4d2365" stop-opacity="1"></stop><stop offset="100%" stop-color="#7d2395" stop-opacity="1"></stop></linearGradient><linearGradient x1="0" x2="1" y1="0" y2="1" id="delapouite-raspberry-gradient-4"><stop offset="0%" stop-color="#4d2365" stop-opacity="1"></stop><stop offset="100%" stop-color="#7d2395" stop-opacity="1"></stop></linearGradient><linearGradient x1="0" x2="1" y1="0" y2="1" id="delapouite-raspberry-gradient-5"><stop offset="0%" stop-color="#4d2365" stop-opacity="1"></stop><stop offset="100%" stop-color="#7d2395" stop-opacity="1"></stop></linearGradient><linearGradient x1="0" x2="1" y1="0" y2="1" id="delapouite-raspberry-gradient-6"><stop offset="0%" stop-color="#4d2365" stop-opacity="1"></stop><stop offset="100%" stop-color="#7d2395" stop-opacity="1"></stop></linearGradient><linearGradient x1="0" x2="1" y1="0" y2="1" id="delapouite-raspberry-gradient-7"><stop offset="0%" stop-color="#4d2365" stop-opacity="1"></stop><stop offset="100%" stop-color="#7d2395" stop-opacity="1"></stop></linearGradient><linearGradient x1="0" x2="1" y1="0" y2="1" id="delapouite-raspberry-gradient-8"><stop offset="0%" stop-color="#4d2365" stop-opacity="1"></stop><stop offset="100%" stop-color="#7d2395" stop-opacity="1"></stop></linearGradient><linearGradient x1="0" x2="1" y1="0" y2="1" id="delapouite-raspberry-gradient-9"><stop offset="0%" stop-color="#4d2365" stop-opacity="1"></stop><stop offset="100%" stop-color="#7d2395" stop-opacity="1"></stop></linearGradient><linearGradient x1="0" x2="1" y1="0" y2="1" id="delapouite-raspberry-gradient-10"><stop offset="0%" stop-color="#4d2365" stop-opacity="1"></stop><stop offset="100%" stop-color="#7d2395" stop-opacity="1"></stop></linearGradient><linearGradient x1="0" x2="1" y1="0" y2="1" id="delapouite-raspberry-gradient-11"><stop offset="0%" stop-color="#4d2365" stop-opacity="1"></stop><stop offset="100%" stop-color="#7d2395" stop-opacity="1"></stop></linearGradient><linearGradient x1="0" x2="1" y1="0" y2="1" id="delapouite-raspberry-gradient-12"><stop offset="0%" stop-color="#4d2365" stop-opacity="1"></stop><stop offset="100%" stop-color="#7d2395" stop-opacity="1"></stop></linearGradient><linearGradient x1="0" x2="1" y1="0" y2="1" id="delapouite-raspberry-gradient-13"><stop offset="0%" stop-color="#4d2365" stop-opacity="1"></stop><stop offset="100%" stop-color="#7d2395" stop-opacity="1"></stop></linearGradient><linearGradient x1="0" x2="1" y1="0" y2="1" id="delapouite-raspberry-gradient-14"><stop offset="0%" stop-color="#4d2365" stop-opacity="1"></stop><stop offset="100%" stop-color="#7d2395" stop-opacity="1"></stop></linearGradient><linearGradient x1="0" x2="1" y1="0" y2="1" id="delapouite-raspberry-gradient-15"><stop offset="0%" stop-color="#4d2365" stop-opacity="1"></stop><stop offset="100%" stop-color="#7d2395" stop-opacity="1"></stop></linearGradient><linearGradient x1="0" x2="1" y1="0" y2="1" id="delapouite-raspberry-gradient-16"><stop offset="0%" stop-color="#4d2365" stop-opacity="1"></stop><stop offset="100%" stop-color="#7d2395" stop-opacity="1"></stop></linearGradient><linearGradient x1="0" x2="1" y1="0" y2="1" id="delapouite-raspberry-gradient-17"><stop offset="0%" stop-color="#4d2365" stop-opacity="1"></stop><stop offset="100%" stop-color="#7d2395" stop-opacity="1"></stop></linearGradient><linearGradient x1="0" x2="1" y1="0" y2="1" id="delapouite-raspberry-gradient-18"><stop offset="0%" stop-color="#4d2365" stop-opacity="1"></stop><stop offset="100%" stop-color="#7d2395" stop-opacity="1"></stop></linearGradient><linearGradient x1="0" x2="1" y1="0" y2="1" id="delapouite-raspberry-gradient-19"><stop offset="0%" stop-color="#4d2365" stop-opacity="1"></stop><stop offset="100%" stop-color="#7d2395" stop-opacity="1"></stop></linearGradient><linearGradient x1="0" x2="1" y1="0" y2="1" id="delapouite-raspberry-gradient-20"><stop offset="0%" stop-color="#4d2365" stop-opacity="1"></stop><stop offset="100%" stop-color="#7d2395" stop-opacity="1"></stop></linearGradient><linearGradient x1="0" x2="1" y1="0" y2="1" id="delapouite-raspberry-gradient-21"><stop offset="0%" stop-color="#4d2365" stop-opacity="1"></stop><stop offset="100%" stop-color="#7d2395" stop-opacity="1"></stop></linearGradient><linearGradient x1="0" x2="1" y1="0" y2="1" id="delapouite-raspberry-gradient-22"><stop offset="0%" stop-color="#4d2365" stop-opacity="1"></stop><stop offset="100%" stop-color="#7d2395" stop-opacity="1"></stop></linearGradient><linearGradient x1="0" x2="1" y1="0" y2="1" id="delapouite-raspberry-gradient-23"><stop offset="0%" stop-color="#4d2365" stop-opacity="1"></stop><stop offset="100%" stop-color="#7d2395" stop-opacity="1"></stop></linearGradient><linearGradient x1="0" x2="1" y1="0" y2="1" id="delapouite-raspberry-gradient-24"><stop offset="0%" stop-color="#4d2365" stop-opacity="1"></stop><stop offset="100%" stop-color="#7d2395" stop-opacity="1"></stop></linearGradient><linearGradient x1="0" x2="1" y1="0" y2="1" id="delapouite-raspberry-gradient-25"><stop offset="0%" stop-color="#4d2365" stop-opacity="1"></stop><stop offset="100%" stop-color="#7d2395" stop-opacity="1"></stop></linearGradient></defs><g class="" transform="translate(0,0)" style=""><g><path d="M414.2 23.8C381.6 44.91 332 61.96 324.3 99.53C303.3 75.98 271.4 62.45 247.2 62.05C211.8 61.79 175.9 72.77 142.9 93.2C204 97.25 231.4 106.3 281.9 122.3L260.1 131.9C246.4 137.9 240.4 143.8 237.7 148.8C231.7 167.6 242.1 182.5 240.1 199.8C252.6 196.6 265.2 194.7 276.2 191.2C292.6 185.9 305.2 178.2 313.1 155.7L319.8 136.5L329.5 154.3C341.3 176 352 186 361.6 190.7C371.2 195.3 380.7 195.1 392 193.5C412 190.9 426.7 186.7 444.7 191.7C437.2 173.7 435.6 160.1 430.3 150.9C411.1 125.9 366.7 117.7 341.4 112C344.4 69.86 397.2 57.11 424.4 38.6Z" class="selected" fill="url(#delapouite-raspberry-gradient-2)" stroke="#000000" stroke-opacity="1" stroke-width="8"></path><path d="M109.7 111.5C89.21 141.8 105.8 173.2 138.5 167.7C136.7 145.7 144.3 125.2 160.1 111.6C146.4 108.4 119.7 100.7 109.7 111.5Z" class="" fill="url(#delapouite-raspberry-gradient-3)" stroke="#000000" stroke-opacity="1" stroke-width="8"></path><path d="M195 116C180.2 119.3 165.3 126.6 158.9 143.8C150.7 165.5 159.9 187.9 178 194.7C189.2 198.9 211.5 195.1 221.4 187.4C224.1 167.5 214 150.1 225.1 135.3C219.1 124.9 206.8 113.6 195 116Z" class="" fill="url(#delapouite-raspberry-gradient-4)" stroke="#000000" stroke-opacity="1" stroke-width="8"></path><path d="M88.98 167.1C84.48 171.5 80.68 177.1 78.18 183.8C69.98 205.5 79.18 227.9 97.28 234.7C103.5 237.1 110.2 237.3 116.7 235.7C115.3 216.1 120.7 198.7 133.1 185.2C114.8 184.6 99.78 180.4 88.98 167.1Z" class="" fill="url(#delapouite-raspberry-gradient-5)" stroke="#000000" stroke-opacity="1" stroke-width="8"></path><path d="M317.5 184.4C307.5 196.9 294.6 204.1 281.7 208.3C268.1 212.7 254.4 214.8 242.7 217.8C247.3 222.3 253 226 259.6 228.5C283.1 237.3 308 226.8 315.9 205.9C318.5 198.9 319 191.5 317.5 184.4Z" class="" fill="url(#delapouite-raspberry-gradient-6)" stroke="#000000" stroke-opacity="1" stroke-width="8"></path><path d="M148.6 193.8C143.3 198.4 138.9 204.6 136.1 212C128 233.8 137.1 256.2 155.2 263C164.7 266.5 175.1 265.2 184.1 260.1C175.5 242.2 195.2 216.6 204.8 213.1C182 212.3 162.7 212.9 148.6 193.8Z" class="" fill="url(#delapouite-raspberry-gradient-7)" stroke="#000000" stroke-opacity="1" stroke-width="8"></path><path d="M336.3 194.3C335.7 206.9 331 218.6 323.8 227.7C325.4 241.5 333.5 253.2 345.7 257.8C363.7 264.6 385.4 253.8 393.6 232C396.3 224.9 397.1 217.7 396.3 211C370.2 212.4 353.8 211.3 336.3 194.3Z" class="" fill="url(#delapouite-raspberry-gradient-8)" stroke="#000000" stroke-opacity="1" stroke-width="8"></path><path d="M414 208.3C416 231.8 406.3 254 388.6 267.2C395 277.9 405.1 285.4 415.9 286.7C434.5 289.1 450.7 273.1 450.8 249.1C450.8 230.9 441.6 215 429 207.3C423.9 207.1 418.4 207.6 414 208.3Z" class="" fill="url(#delapouite-raspberry-gradient-9)" stroke="#000000" stroke-opacity="1" stroke-width="8"></path><path d="M224.7 224.4C213.4 228.3 208.3 232.2 204.2 242.8C196.4 263.4 209.3 288.4 234.8 298.1C260.3 307.7 286.5 297.3 294.2 276.6C297.8 267.2 297 256.8 292.7 247.5C265.6 252.5 241 244.8 224.7 224.4Z" class="" fill="url(#delapouite-raspberry-gradient-10)" stroke="#000000" stroke-opacity="1" stroke-width="8"></path><path d="M72.98 239.9C68.58 245.5 65.48 252.6 64.28 260.9C60.95 284.2 74.48 305.5 93.08 309.7C96.14 310.4 99.29 310.5 102.4 310.2C96.86 291.3 99.99 269.6 110.6 254.7C96.15 255.1 82.37 249.3 72.98 239.9Z" class="" fill="url(#delapouite-raspberry-gradient-11)" stroke="#000000" stroke-opacity="1" stroke-width="8"></path><path d="M313.1 251.9C315.6 269.4 313.5 283.3 303.7 296.4C307.7 306.7 315.7 314.6 326 317.5C344.6 322.7 365.3 310.1 371.5 287.7C372.7 283.6 373.3 279.4 373.3 275.1C348.1 281.6 325.4 273 313.1 251.9Z" class="" fill="url(#delapouite-raspberry-gradient-12)" stroke="#000000" stroke-opacity="1" stroke-width="8"></path><path d="M127.6 263.1C121.8 269.6 118 278.6 117.4 289.2C116.1 312.7 131.4 332.7 150.3 335.2C158.1 336.3 165.6 334.2 171.9 329.8C171.9 314.1 177.6 299.4 187.3 288.6C186.9 285.5 186.1 282.4 185.1 279.4C162.1 285.9 141.4 281.1 127.6 263.1Z" class="" fill="url(#delapouite-raspberry-gradient-13)" stroke="#000000" stroke-opacity="1" stroke-width="8"></path><path d="M387.9 292.1C382.6 310.9 374.4 319.6 362.4 327.4C365.9 336.6 372.8 344 381.9 347.4C399.9 354.2 421.6 343.4 429.8 321.7C432.1 315.6 433 309.6 432.8 303.8C416.8 307.7 399.2 301.5 387.9 292.1Z" class="" fill="url(#delapouite-raspberry-gradient-14)" stroke="#000000" stroke-opacity="1" stroke-width="8"></path><path d="M202.8 298.4C198.4 302.6 194.8 307.9 192.5 314C184.4 335.3 194.9 358.7 215.7 366.5C236.6 374.4 259.8 363.7 267.9 342.4C270.9 334.2 271.3 325.7 269.4 317.9C243.4 321.8 220.5 315.8 202.8 298.4Z" class="" fill="url(#delapouite-raspberry-gradient-15)" stroke="#000000" stroke-opacity="1" stroke-width="8"></path><path d="M291.3 311.8C289.8 312.2 288.2 312.7 286.7 313.3C291.5 338.7 282.9 362.3 263.3 376.3C265.7 379.4 268.8 381.9 272.2 383.8C289 392.9 313.2 385.8 326 366.1C332.5 356.2 334.5 345.4 332.8 336C315.9 335.5 299.1 324.1 291.3 311.8Z" class="" fill="url(#delapouite-raspberry-gradient-16)" stroke="#000000" stroke-opacity="1" stroke-width="8"></path><path d="M64.93 313.2C62.58 318.5 61.23 324.7 61.22 331.6C61.22 353.4 74.48 372 90.88 377C86.31 359.9 86.82 343.1 94.28 328.2C83.24 326.2 71.83 319.9 64.93 313.2Z" class="" fill="url(#delapouite-raspberry-gradient-17)" stroke="#000000" stroke-opacity="1" stroke-width="8"></path><path d="M113.5 331.7C109.7 337 107.1 343.6 106 351.1C102.6 374.4 116.2 395.7 134.8 399.8C139.5 400.9 144.4 400.8 149.1 399.5C146.3 382.2 148 367.5 156.2 353.6C139.9 353.6 121.9 342.3 113.5 331.7Z" class="" fill="url(#delapouite-raspberry-gradient-18)" stroke="#000000" stroke-opacity="1" stroke-width="8"></path><path d="M351.8 345.5C349.3 365.8 339.9 381.8 324.4 392.9C327.1 397.5 331 401.3 335.9 404C352.6 413.2 376.8 406.1 389.7 386.4C393.7 380.1 396 373.6 396.8 367.3C378.8 368.3 361.2 359 351.8 345.5Z" class="" fill="url(#delapouite-raspberry-gradient-19)" stroke="#000000" stroke-opacity="1" stroke-width="8"></path><path d="M177.8 354.5C173 359.5 169.3 365.9 167.2 373.4C160.9 395.6 172.4 417.4 191.7 422.8C211 428.2 232 415.5 238.3 393.2C238.9 390.9 239.3 388.6 239.6 386.2C208.8 392.3 188.9 376.4 177.8 354.5Z" class="" fill="url(#delapouite-raspberry-gradient-20)" stroke="#000000" stroke-opacity="1" stroke-width="8"></path><path d="M256.4 395C252.7 409.3 241.8 424.9 231.5 432.1C234 435.2 237 437.7 240.5 439.6C257.3 448.7 281.4 441.7 294.3 421.9C298.2 415.9 300.5 409.6 301.3 403.4C283.3 405.6 269.4 404.6 256.4 395Z" class="" fill="url(#delapouite-raspberry-gradient-21)" stroke="#000000" stroke-opacity="1" stroke-width="8"></path><path d="M100.6 396.3C99.56 401.2 99.34 403 99.18 406.4C98.58 418.4 101.9 429.5 107.1 437.4C112.4 445.2 119.2 449.7 126.6 450.4C128.8 438.7 130.7 427.4 135.7 418.3C120 413.7 108.8 408.7 100.6 396.3Z" class="" fill="url(#delapouite-raspberry-gradient-22)" stroke="#000000" stroke-opacity="1" stroke-width="8"></path><path d="M317.9 413.6C313.1 429.9 300.9 444 287.5 452C287.8 452.2 288 452.4 288.3 452.5C303.8 463 329.2 458.5 345 440.4C349.3 435.6 352.2 430.4 354 425.3C339.4 424.9 328.1 422.1 317.9 413.6Z" class="" fill="url(#delapouite-raspberry-gradient-23)" stroke="#000000" stroke-opacity="1" stroke-width="8"></path><path d="M157.4 418.5C153.7 422.8 150.5 428 148.2 434.1C139.8 456.3 147.9 477.8 163.1 483.5C178.3 489.2 198.5 478.3 206.8 456.2C208.7 451 209.8 446 210.1 441.1C188.8 444.4 168.4 434.7 157.4 418.5Z" class="" fill="url(#delapouite-raspberry-gradient-24)" stroke="#000000" stroke-opacity="1" stroke-width="8"></path><path d="M226.6 452.2C224.4 462.9 219 473.6 212.9 481.4C213.7 482.3 214.7 483.2 215.7 483.9C221.7 488.3 229.8 489.4 238.9 486.9C254.7 480.8 264.9 472.5 271.8 458.7C254.4 461.2 239.3 460.9 226.6 452.2Z" class="" fill="url(#delapouite-raspberry-gradient-25)" stroke="#000000" stroke-opacity="1" stroke-width="8"></path></g></g></svg>