<svg xmlns="http://www.w3.org/2000/svg" viewBox="0 0 512 512" style="height: 512px; width: 512px;">
  <g transform="scale(1.15) translate(-30, -30)">
    <path
      d="M172 402.4L167 376C228.2 425.2 273.3 433 330.9 413.1C359.8 403.1 379.5 382.5 391 356L400 375.4L399.7 328.3C401 322 402 315.5 402.7 308.8C402.9 306.7 403.1 304.6 403.2 302.5L414.9 310.9L401.9 253.8C397.9 219 388 181.9 373.4 145.4L365.6 126L358.3 141.7C352.3 160.9 338 176.5 319.8 188.3C297.2 203 268.4 212.7 239.2 218.2C210 223.6 180.4 224.7 156.2 221.5C144.1 219.9 133.3 217.2 124.3 213.1C122.2 212.1 120.2 211.1 118.2 210C117.1 209.6 115.9 209.2 114.8 208.8L100.4 203.8L103 218.8C104.9 229.6 107.1 241 109.9 252.6L121.5 342.8L127.8 318.2L139.8 384.9L142.2 349.1L157.4 380.3Z"
      fill="#a56204"
    />
    <path
      d="M335.3 175.9L337 200L275 400L200 350L195 240C195 240 175 230 180 223.2C180 223.2 275 227 335.3 175.9Z"
      fill="#fffc"
    />
    <path
      d="M272.4 97.3C250.9 97.5 228.6 101 212 105.8C191.2 111.9 166.4 122.6 148.2 137.1C130.5 151.3 119.5 168 120.9 188.6C122.6 191.1 126 194.1 131.7 196.7C138.4 199.8 147.7 202.2 158.6 203.6C180.3 206.5 208.4 205.6 235.9 200.5C263.3 195.4 290.3 186.1 310 173.2C329.2 160.6 341.1 145.4 342.9 126.9C340.7 118.8 335.7 112.9 327.5 108.2C318.8 103.2 306.8 99.9 293.4 98.4C286.6 97.6 279.6 97.3 272.4 97.3Z"
      fill="#fff"
    />
    <path
      d="M269.3 112.3C291.6 112.1 313.4 116.6 326.7 128.2C318.2 125.1 261.5 124.6 230.9 133.7C199.7 143 166.7 156.1 146.2 182.2C151.6 147.2 192.9 128.6 225.3 118.9C238.5 114.9 254 112.5 269.3 112.3Z"
      fill="#ddd"
    />
    <path
      d="M362.9 168.9C380.5 218.1 388.8 267.2 384.8 307C380.4 351.4 362.2 383.2 325.1 396.1C252.3 421.2 208 400.4 176.7 361.4C148.5 326.3 132.5 275.3 123.5 230.3C147.9 237.2 172 240.1 195.1 240C211.5 247.7 226.5 253.6 247.9 250.8C247.9 250.8 250.6 280.8 250 295.8C249.6 306.6 242.4 317.8 245.9 328.1C249.2 337.8 257.3 350.4 267.6 349.9C278.5 349.3 287.3 335.2 288.3 324.2C289.2 314.2 276.5 307.3 273.9 297.5C269.6 280.9 272.9 245.9 272.9 245.9C295.3 210.5 334.5 249.2 336.7 194.8C347.2 186.8 356 178.1 362.9 168.9Z"
      fill="#b57204"
    />
  </g>
</svg>