<svg xmlns="http://www.w3.org/2000/svg" viewBox="0 0 512 512" style="height: 512px; width: 512px;"><g class="" transform="translate(0,0)" style=""><g><path d="M275.2 26.85C261.3 84.78 248.7 142.6 241.1 200.1C244.9 199.2 248.8 198.8 252.9 198.8C259.7 198.8 266.3 200 272.5 202.3C276.8 145.2 283.4 87.51 298 29.05Z" class="" fill="#f8e71c" fill-opacity="1" stroke="#000000" stroke-opacity="1" stroke-width="8"></path><path d="M215.5 35.48L180.1 43.81C183.6 60.19 187.8 76.53 192.6 92.85L231.1 145.9C232.7 136.5 234.5 127.2 236.3 117.8C228.3 90.73 220.9 63.34 215.5 35.48Z" class="" fill="#f8e71c" fill-opacity="1" stroke="#000000" stroke-opacity="1" stroke-width="8"></path><path d="M346 44.76C327.1 69.5 312.2 95.37 298.8 121.8C296.8 136.8 295.1 151.7 293.6 166.8C300.3 160.9 306.9 155 313.4 149.1C326.4 117.1 342.3 85.18 366.7 53.98Z" class="" fill="#f8e71c" fill-opacity="1" stroke="#000000" stroke-opacity="1" stroke-width="8"></path><path d="M147.1 61.14L128.4 76.16L217.6 211.5C218.9 210.4 220.2 209.4 221.6 208.3C223.2 195.9 224.9 183.5 226.8 171.1Z" class="" fill="#f8e71c" fill-opacity="1" stroke="#000000" stroke-opacity="1" stroke-width="8"></path><path d="M406.9 83.77C371.2 121.6 331.9 157.5 291.3 192.8L289.8 212.8C294.1 216.6 297.9 221.1 300.9 226.1C344.4 185.1 386.9 144.4 422.2 102.2Z" class="" fill="#f8e71c" fill-opacity="1" stroke="#000000" stroke-opacity="1" stroke-width="8"></path><path d="M96.74 117.2L75.81 147C96.17 164.2 119.9 179.4 145.2 193.8C161.1 198.7 177 203.2 193 207.4L166.8 167.5C141.6 152.6 117.5 136.6 96.74 117.2Z" class="" fill="#f8e71c" fill-opacity="1" stroke="#000000" stroke-opacity="1" stroke-width="8"></path><path d="M445.7 131.5L372.2 182.9C366.6 188.6 360.8 194.1 355.1 199.8C367.8 199.5 380.5 198.9 393.3 197.9C414 182.4 435.8 167.3 460.1 153Z" class="" fill="#f8e71c" fill-opacity="1" stroke="#000000" stroke-opacity="1" stroke-width="8"></path><path d="M54.58 180.5L48.73 203.6C93.51 223.9 140.4 240 187.9 255.1C191 252.9 194.1 250.8 197.2 248.7C198 241.5 200.1 234.9 203.3 228.7C152.6 215.8 102.7 200.7 54.58 180.5Z" class="" fill="#f8e71c" fill-opacity="1" stroke="#000000" stroke-opacity="1" stroke-width="8"></path><path d="M475.9 203.2C428.5 214.6 381.8 218.1 336 218C326.7 226.9 317.4 235.7 308 244.6L308.3 246.1C309.5 246.9 310.6 247.6 311.8 248.3C369.7 247.4 425.8 240.6 481 230.8Z" class="" fill="#f8e71c" fill-opacity="1" stroke="#000000" stroke-opacity="1" stroke-width="8"></path><path d="M252.9 216.9C231.8 216.9 214.9 233.9 214.9 255.1C214.9 276.3 231.8 293.2 252.9 293.2C274 293.2 290.8 276.3 290.8 255.1C290.8 233.9 274 216.9 252.9 216.9Z" class="selected" fill="#f5a623" fill-opacity="1" stroke="#000000" stroke-opacity="1" stroke-width="8"></path><path d="M35.18 227.4L31 253.7L90.57 261.9C103.6 259.7 116.5 257.4 129.2 254.9C108 247.5 86.96 239.7 66.23 231Z" class="" fill="#f8e71c" fill-opacity="1" stroke="#000000" stroke-opacity="1" stroke-width="8"></path><path d="M398.6 261.1C379.8 263.1 360.9 264.6 341.9 265.6C361 275.7 381 285.1 401.6 294.2L469.4 309L472.5 274.2Z" class="" fill="#f8e71c" fill-opacity="1" stroke="#000000" stroke-opacity="1" stroke-width="8"></path><path d="M163.8 266.5C123.5 274.7 82.46 282.6 37.15 287.8L40.15 322.1L107.4 307.3C128.2 294.6 148.7 281.5 168.7 268.1C167.1 267.6 165.4 267 163.8 266.5Z" class="" fill="#f8e71c" fill-opacity="1" stroke="#000000" stroke-opacity="1" stroke-width="8"></path><path d="M307.8 266.9C305.2 278.3 299.3 288.5 291.1 296.2C344.2 325.6 407.7 346.1 470.1 368.4L478.7 345.6C419.6 322 360.2 298.4 307.8 266.9Z" class="" fill="#f8e71c" fill-opacity="1" stroke="#000000" stroke-opacity="1" stroke-width="8"></path><path d="M198.7 269.5C151 302.2 101.7 333.4 48.95 361.3L62.18 381.2C110.7 358.4 156.7 333.4 200.6 306.4L210.9 292.3C205.2 285.8 200.9 278.1 198.7 269.5Z" class="" fill="#f8e71c" fill-opacity="1" stroke="#000000" stroke-opacity="1" stroke-width="8"></path><path d="M271.4 308.1C265.6 310.3 259.3 311.4 252.9 311.4C248.3 311.4 243.9 310.8 239.8 309.8L261.7 485.1L285.2 481.1Z" class="" fill="#f8e71c" fill-opacity="1" stroke="#000000" stroke-opacity="1" stroke-width="8"></path><path d="M221.3 308.7L118.3 451.1L138.1 464.6L226.8 352.8Z" class="" fill="#f8e71c" fill-opacity="1" stroke="#000000" stroke-opacity="1" stroke-width="8"></path><path d="M290.3 316.5L292.1 339.2C316 381.9 340.9 424.2 369.1 465.2L398.4 449.3C368 410.1 342 370.1 317.4 329.8C308.2 325.6 299.1 321.2 290.3 316.5Z" class="" fill="#f8e71c" fill-opacity="1" stroke="#000000" stroke-opacity="1" stroke-width="8"></path><path d="M346.6 342.5C350.2 348.4 354 354.2 357.7 360.1C382.4 383.3 406.4 407.8 427.9 436.2L452.7 413.5C437.8 396.1 421.9 380.2 405.4 364.8C385.7 357.8 365.9 350.4 346.6 342.5Z" class="" fill="#f8e71c" fill-opacity="1" stroke="#000000" stroke-opacity="1" stroke-width="8"></path><path d="M173.8 343.6C149.9 357.3 125.4 370.4 100.2 383L73.6 407.5L98.5 430.4L144 384.6Z" class="" fill="#f8e71c" fill-opacity="1" stroke="#000000" stroke-opacity="1" stroke-width="8"></path><path d="M230 378.2L202.9 412.3L192.2 472.9L218.5 480.6L232.6 398.8Z" class="" fill="#f8e71c" fill-opacity="1" stroke="#000000" stroke-opacity="1" stroke-width="8"></path><path d="M295.5 382.1L296.2 390.1L326.4 479.2L341 473.2L331.9 442.1C319.2 422.3 307.2 402.2 295.5 382.1Z" class="" fill="#f8e71c" fill-opacity="1" stroke="#000000" stroke-opacity="1" stroke-width="8"></path></g></g></svg>