<svg xmlns="http://www.w3.org/2000/svg" viewBox="0 0 512 512" style="height: 512px; width: 512px;"><defs><linearGradient x1="0" x2="1" y1="0" y2="1" id="lorc-grapes-gradient-1"><stop offset="0%" stop-color="#810de7" stop-opacity="1"></stop><stop offset="100%" stop-color="#ab5bf2" stop-opacity="1"></stop></linearGradient><linearGradient x1="0" x2="1" y1="0" y2="1" id="lorc-grapes-gradient-2"><stop offset="0%" stop-color="#417505" stop-opacity="1"></stop><stop offset="100%" stop-color="#4c8806" stop-opacity="1"></stop></linearGradient><linearGradient x1="0" x2="1" y1="0" y2="1" id="lorc-grapes-gradient-3"><stop offset="0%" stop-color="#810de7" stop-opacity="1"></stop><stop offset="100%" stop-color="#ab5bf2" stop-opacity="1"></stop></linearGradient><linearGradient x1="0" x2="1" y1="0" y2="1" id="lorc-grapes-gradient-4"><stop offset="0%" stop-color="#810de7" stop-opacity="1"></stop><stop offset="100%" stop-color="#ab5bf2" stop-opacity="1"></stop></linearGradient><linearGradient x1="0" x2="1" y1="0" y2="1" id="lorc-grapes-gradient-5"><stop offset="0%" stop-color="#810de7" stop-opacity="1"></stop><stop offset="100%" stop-color="#ab5bf2" stop-opacity="1"></stop></linearGradient><linearGradient x1="0" x2="1" y1="0" y2="1" id="lorc-grapes-gradient-6"><stop offset="0%" stop-color="#810de7" stop-opacity="1"></stop><stop offset="100%" stop-color="#ab5bf2" stop-opacity="1"></stop></linearGradient><linearGradient x1="0" x2="1" y1="0" y2="1" id="lorc-grapes-gradient-7"><stop offset="0%" stop-color="#810de7" stop-opacity="1"></stop><stop offset="100%" stop-color="#ab5bf2" stop-opacity="1"></stop></linearGradient><linearGradient x1="0" x2="1" y1="0" y2="1" id="lorc-grapes-gradient-8"><stop offset="0%" stop-color="#810de7" stop-opacity="1"></stop><stop offset="100%" stop-color="#ab5bf2" stop-opacity="1"></stop></linearGradient><linearGradient x1="0" x2="1" y1="0" y2="1" id="lorc-grapes-gradient-9"><stop offset="0%" stop-color="#810de7" stop-opacity="1"></stop><stop offset="100%" stop-color="#ab5bf2" stop-opacity="1"></stop></linearGradient><linearGradient x1="0" x2="1" y1="0" y2="1" id="lorc-grapes-gradient-10"><stop offset="0%" stop-color="#810de7" stop-opacity="1"></stop><stop offset="100%" stop-color="#ab5bf2" stop-opacity="1"></stop></linearGradient><linearGradient x1="0" x2="1" y1="0" y2="1" id="lorc-grapes-gradient-11"><stop offset="0%" stop-color="#810de7" stop-opacity="1"></stop><stop offset="100%" stop-color="#ab5bf2" stop-opacity="1"></stop></linearGradient><linearGradient x1="0" x2="1" y1="0" y2="1" id="lorc-grapes-gradient-12"><stop offset="0%" stop-color="#810de7" stop-opacity="1"></stop><stop offset="100%" stop-color="#ab5bf2" stop-opacity="1"></stop></linearGradient><linearGradient x1="0" x2="1" y1="0" y2="1" id="lorc-grapes-gradient-13"><stop offset="0%" stop-color="#810de7" stop-opacity="1"></stop><stop offset="100%" stop-color="#ab5bf2" stop-opacity="1"></stop></linearGradient><linearGradient x1="0" x2="1" y1="0" y2="1" id="lorc-grapes-gradient-14"><stop offset="0%" stop-color="#810de7" stop-opacity="1"></stop><stop offset="100%" stop-color="#ab5bf2" stop-opacity="1"></stop></linearGradient><linearGradient x1="0" x2="1" y1="0" y2="1" id="lorc-grapes-gradient-15"><stop offset="0%" stop-color="#810de7" stop-opacity="1"></stop><stop offset="100%" stop-color="#ab5bf2" stop-opacity="1"></stop></linearGradient><linearGradient x1="0" x2="1" y1="0" y2="1" id="lorc-grapes-gradient-16"><stop offset="0%" stop-color="#810de7" stop-opacity="1"></stop><stop offset="100%" stop-color="#ab5bf2" stop-opacity="1"></stop></linearGradient><linearGradient x1="0" x2="1" y1="0" y2="1" id="lorc-grapes-gradient-17"><stop offset="0%" stop-color="#810de7" stop-opacity="1"></stop><stop offset="100%" stop-color="#ab5bf2" stop-opacity="1"></stop></linearGradient></defs><g class="" transform="translate(0,0)" style=""><g><path d="M277.28 18.094C279.7 51.764 277.186 84.786 268.313 117.281C267.765 115.12 267.161 112.974 266.5 110.845C257.145 80.811 236.97 55.08 205.187 35.532C183.545 18.984 144.927 11.837 91.75 27.189C94 49.449 137.202 52.011 151.906 54.033C123.012 60.4 91.11 85.214 48.53 90.25C87.854 110.994 141.19 94.646 177.594 78.562C175.721 96.277 163.904 107.595 153.064 138.156C200.896 127.094 223.914 100.738 225.219 75.594C236.392 87.806 243.982 101.404 248.655 116.406C252.16 127.656 253.995 139.798 254.249 152.75C258.122 157.72 261.149 163.385 263.062 169.53C268.465 166.465 274.369 164.381 280.499 163.375C286.606 148.455 293.482 136.285 301.029 127.219C315.909 109.349 331.996 102.671 354.529 107.029L354.562 106.874C387.165 129.572 378.676 167.844 366.812 196.249C388.399 189.573 400.212 176.321 400.249 153.279C418.196 165.049 425.672 184.372 430.812 205.343C438.032 183.84 436.584 160.559 418.03 140.499L461.375 156.999C433.451 123.636 407.057 88.076 356.095 88.311C329.638 83.861 306.185 93.278 288.719 112.874C296.129 81.624 298.155 49.936 295.999 18.094L277.279 18.094Z" class="selected" fill="url(#lorc-grapes-gradient-2)" stroke="#000000" stroke-opacity="1" stroke-width="8"></path><path d="M212.53 150.97C193.528 150.97 178.312 166.154 178.312 185.156C178.312 191.966 180.275 198.283 183.656 203.594C187.381 202.767 191.185 202.348 195 202.344C208.056 202.344 220.03 207.151 229.28 215.064C239.72 209.228 246.72 198.056 246.72 185.156C246.72 166.154 231.534 150.969 212.53 150.969Z" class="" fill="url(#lorc-grapes-gradient-3)" stroke="#000000" stroke-opacity="1" stroke-width="8"></path><path d="M154.125 169.656C135.122 169.656 119.905 184.841 119.905 203.844C119.905 219.821 130.655 233.139 145.375 236.969C149.379 226.174 156.815 217.026 166.345 210.843C159.446 198.562 157.779 184.022 161.719 170.499C159.226 169.94 156.679 169.657 154.124 169.655Z" class="" fill="url(#lorc-grapes-gradient-4)" stroke="#000000" stroke-opacity="1" stroke-width="8"></path><path d="M289.031 181.344C270.029 181.344 254.814 196.529 254.814 215.531C254.814 219.026 255.324 222.397 256.282 225.563C260.492 224.503 264.817 223.968 269.158 223.97C285.361 223.97 299.903 231.35 309.628 242.906C317.902 236.681 323.221 226.773 323.221 215.531C323.221 196.531 308.035 181.345 289.031 181.345Z" class="" fill="url(#lorc-grapes-gradient-5)" stroke="#000000" stroke-opacity="1" stroke-width="8"></path><path d="M195 221.03C175.997 221.03 160.78 236.248 160.78 255.25C160.78 274.252 176 289.47 195 289.47C214 289.47 229.22 274.252 229.22 255.25C229.22 236.248 214.003 221.03 195 221.03Z" class="" fill="url(#lorc-grapes-gradient-6)" stroke="#000000" stroke-opacity="1" stroke-width="8"></path><path d="M342.156 228.062C341.562 228.062 340.961 228.064 340.376 228.094C337.246 240.831 329.468 251.769 318.969 259.031C321.024 264.745 322.071 270.773 322.061 276.845C322.061 280.995 321.538 285.027 320.624 288.907C326.487 293.647 333.964 296.47 342.154 296.47C361.158 296.47 376.374 281.252 376.374 262.25C376.374 243.248 361.158 228.062 342.154 228.062Z" class="" fill="url(#lorc-grapes-gradient-7)" stroke="#000000" stroke-opacity="1" stroke-width="8"></path><path d="M269.156 242.656C260.986 242.656 253.512 245.476 247.656 250.186C247.816 251.859 247.906 253.538 247.906 255.25C247.906 267.453 243.726 278.712 236.719 287.688C241.209 301.318 253.949 311.063 269.155 311.063C288.085 311.136 303.448 295.773 303.375 276.843C303.375 257.841 288.158 242.656 269.155 242.656Z" class="" fill="url(#lorc-grapes-gradient-8)" stroke="#000000" stroke-opacity="1" stroke-width="8"></path><path d="M124.906 253.75C105.903 253.75 90.719 268.966 90.719 287.97C90.719 299.926 96.743 310.367 105.937 316.47C110.317 296.33 126.242 280.425 146.374 276.03C143.964 270.443 142.547 264.479 142.186 258.406C136.942 255.347 130.977 253.74 124.906 253.75Z" class="" fill="url(#lorc-grapes-gradient-9)" stroke="#000000" stroke-opacity="1" stroke-width="8"></path><path d="M157.626 293.47C138.622 293.47 123.406 308.654 123.406 327.656C123.333 346.586 138.696 361.949 157.626 361.876C176.626 361.876 191.812 346.659 191.812 327.656C191.812 319.952 189.328 312.879 185.094 307.186C175.108 305.273 165.885 300.521 158.531 293.5C158.231 293.492 157.928 293.47 157.626 293.47Z" class="" fill="url(#lorc-grapes-gradient-10)" stroke="#000000" stroke-opacity="1" stroke-width="8"></path><path d="M222 300.686C217.114 303.612 211.784 305.723 206.22 306.936C208.957 313.311 210.5 320.302 210.5 327.656C210.5 338.489 207.2 348.589 201.562 356.999C207.789 363.617 216.652 367.719 226.532 367.719C245.461 367.791 260.823 352.428 260.75 333.499C260.75 331.972 260.628 330.471 260.437 328.999C243.647 326.184 229.487 315.395 222 300.686Z" class="" fill="url(#lorc-grapes-gradient-11)" stroke="#000000" stroke-opacity="1" stroke-width="8"></path><path d="M313.03 306.343C305.344 317.718 293.342 325.95 279.438 328.718C284.454 341.34 296.725 350.185 311.218 350.185C330.221 350.185 345.438 335 345.438 315.998C345.438 315.685 345.414 315.371 345.406 315.06C344.331 315.126 343.246 315.154 342.156 315.154C331.411 315.154 321.396 311.904 313.031 306.342Z" class="" fill="url(#lorc-grapes-gradient-12)" stroke="#000000" stroke-opacity="1" stroke-width="8"></path><path d="M275.03 354.468C270.427 365.01 262.549 373.788 252.563 379.498C256.543 393.981 269.717 404.498 285.531 404.498C304.535 404.498 319.721 389.313 319.721 370.31C319.721 369.6 319.699 368.885 319.657 368.185C316.907 368.63 314.09 368.873 311.22 368.873C297.253 368.873 284.512 363.378 275.03 354.467Z" class="" fill="url(#lorc-grapes-gradient-13)" stroke="#000000" stroke-opacity="1" stroke-width="8"></path><path d="M188.72 370.404C182.86 374.684 176.178 377.705 169.094 379.279C168.25 382.29 167.82 385.402 167.814 388.529C167.814 407.533 182.998 422.719 202 422.719C221.002 422.719 236.22 407.533 236.22 388.529C236.22 387.523 236.178 386.514 236.094 385.529C232.991 386.104 229.794 386.405 226.531 386.405C211.756 386.405 198.341 380.258 188.721 370.405Z" class="" fill="url(#lorc-grapes-gradient-14)" stroke="#000000" stroke-opacity="1" stroke-width="8"></path><path d="M127.438 371.029C124.856 375.851 123.406 381.361 123.406 387.249C123.406 406.251 138.623 421.437 157.626 421.437C158.618 421.437 159.592 421.393 160.562 421.312C153.402 412.288 149.125 400.888 149.125 388.53C149.125 385.616 149.385 382.76 149.845 379.97C141.784 378.768 134.113 375.707 127.438 371.03Z" class="" fill="url(#lorc-grapes-gradient-15)" stroke="#000000" stroke-opacity="1" stroke-width="8"></path><path d="M250.406 409.749C249.2 412.469 247.769 415.082 246.126 417.562C256.316 426.485 263.071 439.242 264.094 453.53C281.6 452.87 295.566 439.27 296.844 421.938C293.194 422.74 289.414 423.188 285.531 423.188C272.079 423.188 259.768 418.088 250.407 409.75Z" class="" fill="url(#lorc-grapes-gradient-16)" stroke="#000000" stroke-opacity="1" stroke-width="8"></path><path d="M233.312 431.062C224.535 437.552 213.7 441.405 202 441.405C195.557 441.408 189.168 440.221 183.156 437.905C179.376 443.408 177.156 450.072 177.156 457.311C177.156 476.314 192.341 491.531 211.344 491.531C230.273 491.604 245.637 476.24 245.564 457.311C245.564 446.701 240.809 437.313 233.314 431.061Z" class="" fill="url(#lorc-grapes-gradient-17)" stroke="#000000" stroke-opacity="1" stroke-width="8"></path></g></g></svg>