<svg xmlns="http://www.w3.org/2000/svg" viewBox="0 0 512 512" style="height: 512px; width: 512px;"><g class="" transform="translate(0,0)" style=""><g><path d="M126.134 57.858C85.968 90.738 51.89 141.966 32.504 204.083C13.119 266.199 12.01 327.713 26.346 377.596C40.683 427.479 71.002 466.288 114.426 479.834C220.487 504.616 340.909 488.011 419.85 451.331C444.14 450.305 488.792 454.67 494.436 444.508C498.362 437.44 489.851 370.418 469.292 355.665C445.467 182.72 422.602 59.65 256.737 23.838C213.897 11.863 157.969 32.944 126.134 57.858Z" class="selected" fill="#69aa1f" fill-opacity="1" stroke="#000000" stroke-opacity="1" stroke-width="8"></path><path d="M223.432 36.792C232.926 36.8 242.282 38.183 251.376 41.02C287.749 52.367 314.34 85.209 327.514 131.05C340.689 176.89 339.907 235.17 321.475 294.229C303.044 353.288 270.539 401.671 233.628 431.887C196.717 462.103 156.163 473.997 119.79 462.651C83.417 451.304 56.822 418.462 43.647 372.621C30.473 326.781 31.257 268.501 49.688 209.441C68.12 150.384 100.625 102 137.536 71.785C165.219 49.123 194.951 36.767 223.432 36.793Z" class="" fill="#d1f0af" fill-opacity="1" stroke="#000000" stroke-opacity="1" stroke-width="8"></path><path d="M153.014 90.35L183.128 233.2L233.225 56.51C205.513 57.003 168.735 70.397 153.015 90.35Z" class="" fill="#b1e27c" fill-opacity="1" stroke="#000000" stroke-opacity="1" stroke-width="8"></path><path d="M257.456 64.485C253.242 63.783 200.411 236.198 200.411 236.198L310.901 155.128C310.28 134.519 283.561 72.45 257.456 64.485Z" class="" fill="#b1e27c" fill-opacity="1" stroke="#000000" stroke-opacity="1" stroke-width="8"></path><path d="M132.296 111.069C107.808 130.063 88.425 169.315 80.675 197.456L166.335 239.485Z" class="" fill="#b1e27c" fill-opacity="1" stroke="#000000" stroke-opacity="1" stroke-width="8"></path><path d="M316.764 181.702L206.036 255.944L301.632 281.512C308.817 253.539 317.186 208.185 316.764 181.702Z" class="" fill="#b1e27c" fill-opacity="1" stroke="#000000" stroke-opacity="1" stroke-width="8"></path><path d="M72.244 220.282C62.874 245.945 55.886 271.116 55.389 295.782L162.145 259.963Z" class="" fill="#b1e27c" fill-opacity="1" stroke="#000000" stroke-opacity="1" stroke-width="8"></path><path d="M203.22 272.112L269.018 352.114C284.42 335.121 291.615 317.426 297.538 301.135Z" class="" fill="#b1e27c" fill-opacity="1" stroke="#000000" stroke-opacity="1" stroke-width="8"></path><path d="M163.198 277.256L57.163 322.51C56.488 351.598 65.915 380.975 78.413 403.038Z" class="" fill="#b1e27c" fill-opacity="1" stroke="#000000" stroke-opacity="1" stroke-width="8"></path><path d="M190.588 282.79L193.399 433.79C229.809 418.75 249.872 389.385 261.345 371.221Z" class="" fill="#b1e27c" fill-opacity="1" stroke="#000000" stroke-opacity="1" stroke-width="8"></path><path d="M174.083 285.247L91.42 424.739C110.008 442.144 149.05 447.326 174.926 441.811Z" class="" fill="#b1e27c" fill-opacity="1" stroke="#000000" stroke-opacity="1" stroke-width="8"></path></g></g></svg>