<svg xmlns="http://www.w3.org/2000/svg" viewBox="0 0 512 512" style="height: 512px; width: 512px;"><g class="" transform="translate(0,0)" style=""><g><path d="M471.5 65.72C461 70.63 450.4 75.59 439.9 80.61C481.8 196.7 438.8 314.5 358 373.4C316.2 403.9 264.1 418.6 209.1 408.9C155.3 399.3 99.03 366.3 46.97 303.6C38.44 309.4 29.91 315.2 21.39 321.1C33.34 337.2 66.7 378.5 117.4 409.7C181.1 449 268.6 470.9 373.7 399.9C467.2 336.7 490.2 251.7 490.6 181.3C490.9 128.3 478 84.29 471.5 65.72Z" class="" fill="#d88c0d" fill-opacity="1" stroke="#000000" stroke-opacity="1" stroke-width="8"></path><path d="M423.6 88.44C361.3 108.8 319.7 132.2 276.3 159.5C273.9 161.5 276.5 167.9 282.2 167.6L438.1 173.8C438.3 146.1 433.7 117.3 423.6 88.44Z" class="" fill="#f5a623" fill-opacity="1" stroke="#000000" stroke-opacity="1" stroke-width="8"></path><path d="M384.6 132.8L388 150.4L347.7 158.3L344.3 140.7Z" class="" fill="#ffe0af" fill-opacity="1" stroke="#000000" stroke-opacity="1" stroke-width="8"></path><path d="M285.8 185.8C278.4 185.9 274.7 192.8 281 201.1L400.5 302.1C420.9 270.4 434.1 232.5 437.3 191.8Z" class="" fill="#f5a623" fill-opacity="1" stroke="#000000" stroke-opacity="1" stroke-width="8"></path><path d="M323.6 198.4L360.7 212.2L354.5 229L317.4 215.2Z" class="" fill="#ffe0af" fill-opacity="1" stroke="#000000" stroke-opacity="1" stroke-width="8"></path><path d="M208.2 203.3C207.3 203.3 206.3 203.6 205.2 204.2C157.4 232.1 104.8 260.2 62.02 293.5C92.56 330.1 124 355.3 155.1 371.4L213.8 215.2C216.8 210.6 213.4 203.2 208.2 203.3Z" class="" fill="#f5a623" fill-opacity="1" stroke="#000000" stroke-opacity="1" stroke-width="8"></path><path d="M264.4 212.7C259.1 212.7 255.7 219.4 256.4 221.3L301.2 383.6C317.6 377.6 333.1 369.2 347.4 358.8C363.3 347.2 377.7 333 390 316.9L269.1 214.5C267.4 213.2 265.8 212.7 264.4 212.7Z" class="" fill="#f5a623" fill-opacity="1" stroke="#000000" stroke-opacity="1" stroke-width="8"></path><path d="M233.7 219.7C232.5 219.8 231.2 220.7 230.1 223.2L171.4 379C185.2 384.7 198.9 388.7 212.3 391.1C237.2 395.5 261.3 394.5 284 388.9L238.6 224.3C237.8 222.1 235.8 219.7 233.7 219.7Z" class="" fill="#f5a623" fill-opacity="1" stroke="#000000" stroke-opacity="1" stroke-width="8"></path><path d="M168.8 244.5L182.6 256.1L149.7 294.8L135.9 283.2Z" class="" fill="#ffe0af" fill-opacity="1" stroke="#000000" stroke-opacity="1" stroke-width="8"></path><path d="M299.4 261.8L320.6 288.3L306.6 299.5L285.4 273Z" class="" fill="#ffe0af" fill-opacity="1" stroke="#000000" stroke-opacity="1" stroke-width="8"></path><path d="M220.8 286L238.8 286.6L237.2 329.1L219.2 328.5Z" class="selected" fill="#ffe0af" fill-opacity="1" stroke="#000000" stroke-opacity="1" stroke-width="8"></path></g></g></svg>