<svg xmlns="http://www.w3.org/2000/svg" viewBox="0 0 512 512" style="height: 512px; width: 512px;"><g class="" transform="translate(0,0)" style=""><g><path d="M397.777 20.81C369.451 53.355 352.091 69.862 318.047 96.195C319.027 99.657 319.951 103.118 320.814 106.568C344.271 100.492 367.98 95.435 391.874 91.412C394.488 86.254 396.677 81.352 398.357 76.632C404.41 59.627 405.202 43.748 397.777 20.809Z" class="" fill="#417505" fill-opacity="1" stroke="#000000" stroke-opacity="1" stroke-width="2"></path><path d="M281.131 51.81C279.531 76.23 279.694 100.807 280.403 125.53C292.226 141.602 300.746 161.404 303.696 185.08L307.978 169.17C311.538 155.938 307.864 124.958 299.382 96.45C294.417 79.76 287.649 63.985 281.132 51.81Z" class="" fill="#417505" fill-opacity="1" stroke="#000000" stroke-opacity="1" stroke-width="2"></path><path d="M214.845 97.723C230.678 128.457 246.222 166.16 255.025 200.413C265.06 202.511 273.711 206.193 280.429 212.163C286.605 217.653 291.039 225.003 294.251 233.703C328.793 235.025 368.878 239.933 402.358 249.583C379.631 219.643 349.108 200.843 296.238 203.957L287.253 204.487L286.723 195.502C283.58 142.122 249.933 111.067 214.845 97.722Z" class="" fill="#417505" fill-opacity="1" stroke="#000000" stroke-opacity="1" stroke-width="2"></path><path d="M473.7 100.15C435.825 102.306 381.796 109.423 324.66 124.273C326.906 136.66 328.034 148.513 327.47 159.047C343.986 155.477 364.786 154.622 386.074 155.705L473.7 100.15Z" class="" fill="#417505" fill-opacity="1" stroke="#000000" stroke-opacity="1" stroke-width="2"></path><path d="M372.44 173.428C350.43 173.401 330.14 175.813 320.01 179.865L305.283 185.76C325.741 185.64 343.499 188.955 359.018 194.904L437.208 181.176C436.778 181.058 436.41 180.919 435.973 180.806C424.038 177.684 409.525 175.458 394.711 174.296C387.305 173.716 379.777 173.436 372.441 173.428Z" class="selected" fill="#417505" fill-opacity="1" stroke="#000000" stroke-opacity="1" stroke-width="2"></path><path d="M229.28 216.058C227.334 216.048 225.332 216.085 223.3 216.148L244.967 223.961L242.455 216.839C238.383 216.359 233.973 216.084 229.281 216.059Z" class="" fill="#f8e71c" fill-opacity="1" stroke="#000000" stroke-opacity="1" stroke-width="2"></path><path d="M183.818 221.048C181.03 221.615 178.218 222.238 175.395 222.898C178.479 233.676 181.466 244.482 184.355 255.314C194.574 256.825 204.777 258.439 214.963 260.156C211.931 249.672 208.75 239.232 205.423 228.838L183.818 221.048Z" class="" fill="#f8e71c" fill-opacity="1" stroke="#000000" stroke-opacity="1" stroke-width="2"></path><path d="M263.502 222.398L266.834 231.846L274.826 234.726C272.844 230.674 270.672 227.574 268.471 225.616C267.191 224.478 265.507 223.4 263.503 222.398Z" class="" fill="#f8e71c" fill-opacity="1" stroke="#000000" stroke-opacity="1" stroke-width="2"></path><path d="M158 227.512C146.993 230.787 136.177 234.676 125.604 239.158C126.507 242.238 127.39 245.295 128.277 248.358C140.537 249.569 152.776 250.981 164.99 252.596C162.72 244.218 160.39 235.857 158 227.512Z" class="" fill="#f8e71c" fill-opacity="1" stroke="#000000" stroke-opacity="1" stroke-width="2"></path><path d="M226.695 236.506C229.452 245.497 232.108 254.519 234.662 263.57C243.323 265.122 251.977 266.717 260.622 268.354L252.697 245.884L226.695 236.506Z" class="" fill="#f8e71c" fill-opacity="1" stroke="#000000" stroke-opacity="1" stroke-width="2"></path><path d="M274.565 253.768L281.095 272.278C281.875 272.431 282.653 272.583 283.435 272.734C283.23 269.619 282.939 266.511 282.562 263.412C282.256 260.935 281.887 258.552 281.467 256.256L274.564 253.768Z" class="" fill="#f8e71c" fill-opacity="1" stroke="#000000" stroke-opacity="1" stroke-width="2"></path><path d="M83.89 263.006L91.562 296.682C102.007 297.329 112.776 298.005 123.705 298.725C120.675 287.513 117.565 276.323 114.377 265.155C104.227 264.272 94.064 263.555 83.891 263.005Z" class="" fill="#f8e71c" fill-opacity="1" stroke="#000000" stroke-opacity="1" stroke-width="2"></path><path d="M133.62 267.006C136.717 277.989 139.737 288.994 142.678 300.02C154.184 300.852 165.918 301.78 177.878 302.873C175.338 292.383 172.718 281.907 170.002 271.449C157.899 269.773 145.77 268.291 133.619 267.005Z" class="" fill="#f8e71c" fill-opacity="1" stroke="#000000" stroke-opacity="1" stroke-width="2"></path><path d="M67.79 273.366C60.12 279.842 53.552 286.68 48.48 293.786C56.422 294.391 64.53 294.952 72.83 295.492L67.79 273.367Z" class="" fill="#f8e71c" fill-opacity="1" stroke="#000000" stroke-opacity="1" stroke-width="2"></path><path d="M189.295 274.248C191.888 284.398 194.403 294.558 196.835 304.73C207.237 305.815 217.625 307.035 227.995 308.39C225.537 298.682 222.989 288.998 220.35 279.338C210.015 277.541 199.663 275.845 189.295 274.248Z" class="" fill="#f8e71c" fill-opacity="1" stroke="#000000" stroke-opacity="1" stroke-width="2"></path><path d="M239.959 282.828C242.474 292.238 244.899 301.661 247.249 311.092C257.345 312.602 267.416 314.273 277.459 316.104L267.55 288C258.374 286.24 249.18 284.512 239.96 282.828Z" class="" fill="#f8e71c" fill-opacity="1" stroke="#000000" stroke-opacity="1" stroke-width="2"></path><path d="M53.243 312.193C56.493 322.02 59.373 331.921 61.987 341.867C69.269 342.287 76.52 342.757 83.724 343.317L77.004 313.82C69.082 313.312 61.162 312.77 53.244 312.193Z" class="" fill="#f8e71c" fill-opacity="1" stroke="#000000" stroke-opacity="1" stroke-width="2"></path><path d="M95.735 315.008L102.558 344.958C113.907 346.03 125.239 347.273 136.551 348.688C133.976 338.147 131.318 327.627 128.576 317.128C117.631 316.393 106.683 315.686 95.734 315.008Z" class="" fill="#f8e71c" fill-opacity="1" stroke="#000000" stroke-opacity="1" stroke-width="2"></path><path d="M35.929 317.205C32.999 324.53 30.613 332.345 28.827 340.449C33.587 340.575 38.327 340.736 43.047 340.925C40.875 332.947 38.523 325.035 35.929 317.205Z" class="" fill="#f8e71c" fill-opacity="1" stroke="#000000" stroke-opacity="1" stroke-width="2"></path><path d="M147.513 318.461C150.328 329.37 153.052 340.301 155.686 351.255C167.204 352.902 178.699 354.712 190.166 356.685C187.632 344.899 185.002 333.133 182.276 321.39C170.486 320.267 158.901 319.314 147.513 318.46Z" class="" fill="#f8e71c" fill-opacity="1" stroke="#000000" stroke-opacity="1" stroke-width="2"></path><path d="M201.185 323.325C203.991 335.562 206.697 347.822 209.302 360.103C220.182 362.13 231.042 364.275 241.895 366.556C238.899 353.411 235.855 340.286 232.675 327.202C222.197 325.765 211.699 324.472 201.185 323.326Z" class="" fill="#f8e71c" fill-opacity="1" stroke="#000000" stroke-opacity="1" stroke-width="2"></path><path d="M251.872 330.028C255.126 343.605 258.248 357.193 261.317 370.78C264.43 371.474 267.543 372.162 270.657 372.875C274.47 360.4 277.485 347.696 279.685 334.838C270.439 333.093 261.167 331.489 251.872 330.028Z" class="" fill="#f8e71c" fill-opacity="1" stroke="#000000" stroke-opacity="1" stroke-width="2"></path><path d="M25.898 358.375C25.014 366.501 24.728 374.68 25.043 382.848C25.093 384.135 25.165 385.418 25.246 386.698C34.793 387.074 44.346 387.456 53.889 387.868C51.982 378.225 49.933 368.638 47.677 359.131C40.461 358.807 33.204 358.554 25.897 358.376Z" class="" fill="#f8e71c" fill-opacity="1" stroke="#000000" stroke-opacity="1" stroke-width="2"></path><path d="M66.494 360.162C68.684 369.659 70.662 379.184 72.512 388.717C79.8 389.071 87.072 389.464 94.334 389.887L87.918 361.723C80.782 361.131 73.64 360.611 66.494 360.163Z" class="" fill="#f8e71c" fill-opacity="1" stroke="#000000" stroke-opacity="1" stroke-width="2"></path><path d="M106.774 363.455L113.064 391.075C124.427 391.86 135.742 392.755 146.974 393.835C145.054 385.012 143.069 376.204 141.02 367.41C129.625 365.916 118.208 364.598 106.773 363.455Z" class="" fill="#f8e71c" fill-opacity="1" stroke="#000000" stroke-opacity="1" stroke-width="2"></path><path d="M160.104 370.085C162.066 378.65 163.968 387.228 165.809 395.82C176.954 397.099 188.071 398.61 199.153 400.354C197.533 392.11 195.873 383.874 194.171 375.646C182.842 373.634 171.485 371.78 160.104 370.084Z" class="" fill="#f8e71c" fill-opacity="1" stroke="#000000" stroke-opacity="1" stroke-width="2"></path><path d="M213.266 379.155C214.924 387.303 216.543 395.459 218.123 403.623C229.518 405.763 240.77 408.205 251.853 410.998C250.001 402.624 248.137 394.258 246.268 385.896C235.293 383.523 224.292 381.275 213.266 379.154Z" class="" fill="#f8e71c" fill-opacity="1" stroke="#000000" stroke-opacity="1" stroke-width="2"></path><path d="M27.476 404.818C29.34 414.902 32.218 424.526 36.102 433.308C44.722 433.756 53.496 434.178 62.305 434.608C60.688 425.07 59.048 415.553 57.325 406.072C47.399 405.628 37.445 405.217 27.475 404.818Z" class="" fill="#f8e71c" fill-opacity="1" stroke="#000000" stroke-opacity="1" stroke-width="2"></path><path d="M75.91 406.958C77.618 416.504 79.23 426.028 80.828 435.538C88.951 435.968 97.046 436.441 105.061 436.978L98.515 408.23C91.005 407.77 83.475 407.343 75.911 406.96Z" class="" fill="#f8e71c" fill-opacity="1" stroke="#000000" stroke-opacity="1" stroke-width="2"></path><path d="M117.26 409.484L123.844 438.387C135.214 439.352 146.254 440.477 156.784 441.93C154.909 432.065 152.952 422.215 150.912 412.383C139.8 411.255 128.568 410.313 117.26 409.483Z" class="" fill="#f8e71c" fill-opacity="1" stroke="#000000" stroke-opacity="1" stroke-width="2"></path><path d="M169.71 414.477C171.786 424.648 173.775 434.836 175.676 445.041C188.013 447.465 199.344 450.583 209.296 454.737C207.201 442.891 205.035 431.058 202.796 419.239C191.803 417.408 180.772 415.821 169.709 414.479Z" class="" fill="#f8e71c" fill-opacity="1" stroke="#000000" stroke-opacity="1" stroke-width="2"></path><path d="M221.756 422.703C223.559 432.355 225.326 442.011 227.033 451.676C233.936 445.312 240.338 437.316 246.163 428.129C238.143 426.134 229.995 424.343 221.756 422.702Z" class="" fill="#f8e71c" fill-opacity="1" stroke="#000000" stroke-opacity="1" stroke-width="2"></path><path d="M46.816 451.89C49.954 456.1 53.422 459.935 57.221 463.31C60.697 466.4 64.525 469.16 68.636 471.617C67.532 465.345 66.45 459.069 65.388 452.789C59.188 452.485 52.988 452.191 46.818 451.889Z" class="" fill="#f8e71c" fill-opacity="1" stroke="#000000" stroke-opacity="1" stroke-width="2"></path><path d="M83.902 453.736C85.404 462.658 86.965 471.57 88.584 480.471C97.236 483.218 106.542 484.981 116.182 485.788L109.236 455.306C100.796 454.711 92.351 454.188 83.902 453.736Z" class="" fill="#f8e71c" fill-opacity="1" stroke="#000000" stroke-opacity="1" stroke-width="2"></path><path d="M128.052 456.854L134.732 486.18C136.785 486.1 138.842 485.98 140.904 485.818C148.658 485.203 156.359 484.045 163.951 482.354C162.768 475.199 161.542 468.052 160.274 460.912C150.179 459.262 139.334 457.928 128.052 456.854Z" class="" fill="#f8e71c" fill-opacity="1" stroke="#000000" stroke-opacity="1" stroke-width="2"></path><path d="M179.195 464.594C179.941 468.871 180.675 473.166 181.395 477.48C187.495 475.412 193.391 473.01 198.985 470.3C193.098 468.168 186.455 466.27 179.195 464.594Z" class="" fill="#f8e71c" fill-opacity="1" stroke="#000000" stroke-opacity="1" stroke-width="2"></path></g></g></svg>