<svg xmlns="http://www.w3.org/2000/svg" viewBox="0 0 512 512" style="height: 512px; width: 512px;"><defs><linearGradient id="delapouite-strawberry-gradient-4" x1="0" x2="1" y1="0" y2="1"><stop offset="0%" stop-color="#b1061b" stop-opacity="1"></stop><stop offset="100%" stop-color="#f70925" stop-opacity="1"></stop></linearGradient></defs><g class="" transform="translate(0,0)" style=""><g><path d="M365.1 30.76C348.4 34.59 329.2 67.37 317.5 81.66C325.7 85.36 334.8 85.46 344.4 85.26C349.1 77.43 394.3 30.89 365.1 30.76Z" class="" fill="#417505" fill-opacity="1" stroke="#000000" stroke-opacity="1" stroke-width="8"></path><path d="M100.8 95.66C112.9 103.1 129.6 104.5 141.4 104.6C168.6 104.8 204.3 98.46 241.3 87.36L249.9 102.7C229.2 121.3 224.2 136.3 224.2 146.7C224.1 157.1 230.1 164.3 231.5 165.3C242 173 256.4 172.5 274.2 165.2C292.1 158 311.9 144.1 329.7 128.5L338.9 120.3L343.9 131.6C356.7 160.7 369.2 187.1 384.4 204.2C397.4 218.9 411.5 227.1 432.1 226.4C423.2 199 418.1 178.8 410.6 162.2C402.1 143.4 390.6 127.8 364.7 106.3C361.5 103.7 355.2 103.2 345.3 103.3C318.8 103.1 300.1 97.7 281.9 78.16C276.1 71.86 271.7 66.26 261.2 58.36C203.9 65.64 147.2 82.2 100.8 95.66Z" class="" fill="#417505" fill-opacity="1" stroke="#000000" stroke-opacity="1" stroke-width="8"></path><path d="M217.6 112.4C198.3 117.1 179.7 120.2 162.6 121.7C161.3 128.6 154.6 139.6 148.6 138.4C144.2 137.2 142.1 130.4 143.4 122.6C133.6 122.4 123.3 121.8 114.9 120.1C99.64 135.8 95.39 158.1 91.59 176.8C99.69 175.4 100.7 189.6 99.35 195.2C97.01 203.9 91.27 209.9 86.36 209C80.87 253 80.55 302.1 80.3 347.7C80.01 402 75.55 447.3 107.3 476.9C193 500.9 303.5 421.6 369.3 354.6C366.9 355.4 364.8 355.2 363.2 354.2C358.9 351.3 359.6 342.8 364.7 335.2C368.8 330.5 375.5 322.8 381.7 326.4C384.9 328.6 385.4 334 383 340.2C406.4 314.4 422 292 425.1 280.2C427.2 267.7 427.5 255.7 426.6 244.2C425.3 244.2 424.1 244.1 422.9 244C422.7 247 421.7 250.5 420 253.8C415.8 262.1 408.7 266.8 404.2 264.5C399.6 262.2 399.2 253.7 403.4 245.4C404.3 243.6 405.4 241.9 406.6 240.5C397.8 237.5 389.8 233 382.7 227.3C383.9 231.3 382.5 237.3 378.8 242.9C373.7 250.6 366 254.5 361.8 251.6C357.5 248.8 358.2 240.3 363.3 232.6C367.3 228 372.1 223 377.7 223C375.3 220.8 373.1 218.6 370.9 216.1C358.1 201.7 348 183.3 338.6 163.3C335.8 167 332.4 169 329.4 168.2C325.8 167.2 323.7 162.4 323.8 156.4C310 167 295.5 176 281 181.9C278.3 187.7 273.4 196.2 267.8 195C265.1 194.2 263.2 191.4 262.5 187.4C247.6 190.3 233 188.7 220.9 179.9C213.8 174.8 207.3 164.9 206.3 150.7C203.5 155 199.8 157.4 196.5 156.5C191.5 155.2 189.5 146.9 191.8 138C194 130.1 198.9 124.3 203.6 124.1C206.4 124.1 208.6 126.6 209.5 128.5C211.3 123.3 214 118 217.6 112.4Z" class="selected" fill="url(#delapouite-strawberry-gradient-4)" stroke="#000000" stroke-opacity="1" stroke-width="8"></path><path d="M167.5 146.5C172.4 147.9 174.5 156.2 172.1 165C169.7 173.9 163.8 180.1 158.8 178.7C153.8 177.4 151.8 169.1 154.2 160.2C156.9 154.1 160.8 145.4 167.5 146.5Z" class="" fill="#b57204" fill-opacity="1" stroke="#000000" stroke-opacity="1" stroke-width="8"></path><path d="M132.1 150.8C137 152.2 139.1 160.5 136.7 169.4C134.3 178.3 128.4 184.4 123.4 183C118.4 181.7 116.4 173.4 118.8 164.5C121.6 158.3 125.4 149.9 132.1 150.8Z" class="" fill="#b57204" fill-opacity="1" stroke="#000000" stroke-opacity="1" stroke-width="8"></path><path d="M320.2 164.8C325.2 166.1 327.2 174.4 324.8 183.3C322.5 192.2 316.5 198.3 311.5 197C306.6 195.6 303.9 187.1 306.9 178.4C309 172.1 313.6 163.6 320.2 164.8Z" class="" fill="#b57204" fill-opacity="1" stroke="#000000" stroke-opacity="1" stroke-width="8"></path><path d="M185.1 183.6C190.1 185 192.2 193.3 189.8 202.2C187.4 211.1 181.4 217.2 176.4 215.8C171.5 214.5 168.8 206 171.8 197.3C173.9 191 178.5 182.7 185.1 183.6Z" class="" fill="#b57204" fill-opacity="1" stroke="#000000" stroke-opacity="1" stroke-width="8"></path><path d="M229.4 193C234.3 194.3 236.4 202.6 234 211.5C231.6 220.4 225.6 226.5 220.7 225.2C215.7 223.8 213.1 215.4 216 206.7C218.2 200.3 222.8 191.9 229.4 193Z" class="" fill="#b57204" fill-opacity="1" stroke="#000000" stroke-opacity="1" stroke-width="8"></path><path d="M296.7 202.7C301.7 204 303.8 212.3 301.4 221.2C299 230.1 293 236.3 288 234.9C283.1 233.6 281 225.3 283.4 216.4C286.1 210.3 290.1 201.6 296.7 202.7Z" class="" fill="#b57204" fill-opacity="1" stroke="#000000" stroke-opacity="1" stroke-width="8"></path><path d="M336.1 204.5C341.1 205.8 343.1 214.1 340.7 223C338.3 231.9 332.4 238 327.4 236.7C322.5 235.4 320.4 227.1 322.8 218.2C325.5 212 329.4 203.4 336.1 204.5Z" class="" fill="#b57204" fill-opacity="1" stroke="#000000" stroke-opacity="1" stroke-width="8"></path><path d="M138.4 207.5C143.4 208.8 145.5 217.1 143.1 226C140.7 234.9 134.7 241 129.8 239.7C124.8 238.3 122.7 230.1 125.1 221.2C127.7 215.2 131.9 206.3 138.4 207.5Z" class="" fill="#b57204" fill-opacity="1" stroke="#000000" stroke-opacity="1" stroke-width="8"></path><path d="M259.6 226.3C264.6 227.7 266.7 236 264.3 244.9C261.9 253.8 255.9 259.9 250.9 258.6C246 257.2 243.9 248.9 246.3 240C249 233.9 253 225.4 259.6 226.3Z" class="" fill="#b57204" fill-opacity="1" stroke="#000000" stroke-opacity="1" stroke-width="8"></path><path d="M101.7 241.2C106.6 242.6 108.7 250.9 106.3 259.8C103.9 268.7 97.95 274.8 92.99 273.5C88.02 272.1 85.94 263.8 88.33 254.9C91.1 248.7 95.02 240.3 101.7 241.2Z" class="" fill="#b57204" fill-opacity="1" stroke="#000000" stroke-opacity="1" stroke-width="8"></path><path d="M311.4 247.2C316.4 248.5 318.5 256.8 316.1 265.7C313.7 274.6 307.7 280.7 302.8 279.4C291.1 272.1 300.7 245.3 311.4 247.2Z" class="" fill="#b57204" fill-opacity="1" stroke="#000000" stroke-opacity="1" stroke-width="8"></path><path d="M201.5 249.7C206.6 250 210.4 257.6 209.9 266.8C209.5 276 204.9 283.3 199.8 283C194.6 282.7 190.9 275.1 191.4 265.9C191.8 256.7 196.4 249.4 201.5 249.7Z" class="" fill="#b57204" fill-opacity="1" stroke="#000000" stroke-opacity="1" stroke-width="8"></path><path d="M157.4 261C162.4 262.4 164.5 270.7 162.1 279.6C159.7 288.5 153.7 294.6 148.8 293.3C143.8 291.9 141.7 283.6 144.1 274.7C146.8 268.6 150.8 260.1 157.4 261Z" class="" fill="#b57204" fill-opacity="1" stroke="#000000" stroke-opacity="1" stroke-width="8"></path><path d="M356.4 268.9C360.7 271.7 360 280.2 354.9 287.9C349.8 295.6 342.2 299.5 337.9 296.6C333.6 293.7 334.3 285.2 339.4 277.6C343.1 273.4 350.7 264.6 356.4 268.9Z" class="" fill="#b57204" fill-opacity="1" stroke="#000000" stroke-opacity="1" stroke-width="8"></path><path d="M403.5 275.4C407.9 278.1 407.6 286.6 402.8 294.5C398 302.3 390.5 306.5 386.1 303.9C381.7 301.2 382.1 292.6 386.9 284.8C390.7 280.4 397.3 271.6 403.5 275.4Z" class="" fill="#b57204" fill-opacity="1" stroke="#000000" stroke-opacity="1" stroke-width="8"></path><path d="M242.4 279.9C247.3 281.2 249.4 289.5 247 298.4C244.6 307.3 238.7 313.4 233.7 312.1C228.8 310.8 226.7 302.5 229.1 293.6C231.8 287.5 235.8 278.8 242.4 279.9Z" class="" fill="#b57204" fill-opacity="1" stroke="#000000" stroke-opacity="1" stroke-width="8"></path><path d="M292.8 290.7C297.1 293.5 296.4 302 291.3 309.7C286.2 317.4 278.6 321.3 274.3 318.4C270 315.5 270.7 307 275.8 299.4C279.5 295.3 287.1 286.4 292.8 290.7Z" class="" fill="#b57204" fill-opacity="1" stroke="#000000" stroke-opacity="1" stroke-width="8"></path><path d="M107 300.2C111.9 301.6 114 309.9 111.6 318.8C109.2 327.7 103.3 333.8 98.27 332.4C93.31 331.1 91.23 322.8 93.62 313.9C96.39 307.7 100.3 299.3 107 300.2Z" class="" fill="#b57204" fill-opacity="1" stroke="#000000" stroke-opacity="1" stroke-width="8"></path><path d="M329.5 310.5C333.8 313.4 333.1 321.9 328 329.6C322.9 337.2 315.3 341.1 311 338.3C306.7 335.4 307.4 326.9 312.5 319.2C316.4 314.8 323.5 306.6 329.5 310.5Z" class="" fill="#b57204" fill-opacity="1" stroke="#000000" stroke-opacity="1" stroke-width="8"></path><path d="M196.5 310.8C201.5 312.1 203.6 320.4 201.2 329.3C198.8 338.2 192.8 344.3 187.9 343C182.9 341.6 180.8 333.4 183.2 324.5C185.8 318.5 190 309.6 196.5 310.8Z" class="" fill="#b57204" fill-opacity="1" stroke="#000000" stroke-opacity="1" stroke-width="8"></path><path d="M144 316.7C149 318 151.1 326.3 148.7 335.2C146.3 344.1 140.3 350.2 135.3 348.9C130.4 347.6 127.8 339.1 130.7 330.4C132.8 324.2 137.5 315.5 144 316.7Z" class="" fill="#b57204" fill-opacity="1" stroke="#000000" stroke-opacity="1" stroke-width="8"></path><path d="M265.1 334.2C269.4 337 268.7 345.6 263.6 353.2C258.5 360.9 250.9 364.8 246.6 361.9C242.3 359.1 243 350.5 248.1 342.9C251.8 338.7 259.4 329.9 265.1 334.2Z" class="" fill="#b57204" fill-opacity="1" stroke="#000000" stroke-opacity="1" stroke-width="8"></path><path d="M295.3 356.7C299.6 359.6 298.9 368.1 293.8 375.7C288.7 383.4 281.1 387.3 276.8 384.4C272.5 381.6 273.2 373.1 278.3 365.4C282.3 361.1 289.3 352.8 295.3 356.7Z" class="" fill="#b57204" fill-opacity="1" stroke="#000000" stroke-opacity="1" stroke-width="8"></path><path d="M335.6 358.2C339.8 361.1 339.1 369.6 334 377.2C328.9 384.9 321.3 388.8 317 385.9C312.8 383.1 313.4 374.6 318.6 366.9C322.7 362.3 329.4 354.6 335.6 358.2Z" class="" fill="#b57204" fill-opacity="1" stroke="#000000" stroke-opacity="1" stroke-width="8"></path><path d="M203.5 357.8C208.4 359.2 210.5 367.5 208.1 376.4C205.7 385.3 199.8 391.4 194.8 390.1C189.8 388.7 187.2 380.2 190.2 371.5C192.5 364.7 196.6 357.2 203.5 357.8Z" class="" fill="#b57204" fill-opacity="1" stroke="#000000" stroke-opacity="1" stroke-width="8"></path><path d="M108.6 370.4C113.6 371.7 115.7 380 113.3 388.9C110.9 397.8 104.9 403.9 99.94 402.6C94.97 401.2 92.89 392.9 95.29 384.1C97.91 378.1 102.1 369.2 108.6 370.4Z" class="" fill="#b57204" fill-opacity="1" stroke="#000000" stroke-opacity="1" stroke-width="8"></path><path d="M156.3 380.8C161.2 382.1 163.3 390.4 160.9 399.3C158.5 408.2 152.6 414.3 147.6 413C142.6 411.7 139.9 403.2 142.9 394.5C145.1 388.2 149.7 379.7 156.3 380.8Z" class="" fill="#b57204" fill-opacity="1" stroke="#000000" stroke-opacity="1" stroke-width="8"></path><path d="M233 400.9C237.3 403.8 236.6 412.3 231.5 420C226.4 427.6 218.8 431.5 214.5 428.7C210.2 425.8 210.9 417.3 216 409.6C219.9 405.2 227 397 233 400.9Z" class="" fill="#b57204" fill-opacity="1" stroke="#000000" stroke-opacity="1" stroke-width="8"></path><path d="M274.1 407.4C278.4 410.3 277.7 418.8 272.6 426.5C267.5 434.1 259.9 438 255.6 435.2C251.3 432.3 252 423.8 257.1 416.1C261 411.8 268.1 403.5 274.1 407.4Z" class="" fill="#b57204" fill-opacity="1" stroke="#000000" stroke-opacity="1" stroke-width="8"></path><path d="M121.5 433.9C126.5 435.3 128.6 443.6 126.2 452.5C123.8 461.4 117.8 467.5 112.9 466.1C107.9 464.8 105.8 456.5 108.2 447.6C110.9 441.5 115 433 121.5 433.9Z" class="" fill="#b57204" fill-opacity="1" stroke="#000000" stroke-opacity="1" stroke-width="8"></path><path d="M185.8 444.4C190 447.3 189.3 455.8 184.2 463.5C179.1 471.1 171.5 475 167.2 472.2C162.9 469.3 163.6 460.8 168.7 453.1C172.8 448.5 179.6 440.8 185.8 444.4Z" class="" fill="#b57204" fill-opacity="1" stroke="#000000" stroke-opacity="1" stroke-width="8"></path></g></g></svg>